<svg id="SvgjsSvg1159" width="938.0000305175781" height="593.0520935058594" xmlns="http://www.w3.org/2000/svg" version="1.1" xmlns:xlink="http://www.w3.org/1999/xlink" xmlns:svgjs="http://svgjs.com/svgjs"><defs id="SvgjsDefs1160"><pattern patternUnits="userSpaceOnUse" id="pattern_mark_0" width="300" height="300"><text x="150" y="100" fill="rgba(229,229,229,0.8)" font-size="18" transform="rotate(-45, 150, 150)" style="dominant-baseline: middle; text-anchor: middle;"></text></pattern><pattern patternUnits="userSpaceOnUse" id="pattern_mark_1" width="300" height="300"><text x="150" y="200" fill="rgba(229,229,229,0.8)" font-size="18" transform="rotate(-45, 150, 150)" style="dominant-baseline: middle; text-anchor: middle;"></text></pattern><marker id="SvgjsMarker1184" markerWidth="13" markerHeight="9" refX="9.5" refY="4.5" viewBox="0 0 13 9" orient="auto" markerUnits="userSpaceOnUse" stroke-dasharray="0,0"><path id="SvgjsPath1185" d="M0,0 L13,4.5 L0,9 L0,0" fill="#323232" stroke="#323232" stroke-width="1"></path></marker><marker id="SvgjsMarker1188" markerWidth="13" markerHeight="9" refX="9.5" refY="4.5" viewBox="0 0 13 9" orient="auto" markerUnits="userSpaceOnUse" stroke-dasharray="0,0"><path id="SvgjsPath1189" d="M0,0 L13,4.5 L0,9 L0,0" fill="#323232" stroke="#323232" stroke-width="1"></path></marker><marker id="SvgjsMarker1220" markerWidth="13" markerHeight="9" refX="9.5" refY="4.5" viewBox="0 0 13 9" orient="auto" markerUnits="userSpaceOnUse" stroke-dasharray="0,0"><path id="SvgjsPath1221" d="M0,0 L13,4.5 L0,9 L0,0" fill="#323232" stroke="#323232" stroke-width="1"></path></marker><marker id="SvgjsMarker1228" markerWidth="13" markerHeight="9" refX="9.5" refY="4.5" viewBox="0 0 13 9" orient="auto" markerUnits="userSpaceOnUse" stroke-dasharray="0,0"><path id="SvgjsPath1229" d="M0,0 L13,4.5 L0,9 L0,0" fill="#323232" stroke="#323232" stroke-width="1"></path></marker><marker id="SvgjsMarker1266" markerWidth="13" markerHeight="9" refX="9.5" refY="4.5" viewBox="0 0 13 9" orient="auto" markerUnits="userSpaceOnUse" stroke-dasharray="0,0"><path id="SvgjsPath1267" d="M0,0 L13,4.5 L0,9 L0,0" fill="#323232" stroke="#323232" stroke-width="1"></path></marker><marker id="SvgjsMarker1270" markerWidth="13" markerHeight="9" refX="9.5" refY="4.5" viewBox="0 0 13 9" orient="auto" markerUnits="userSpaceOnUse" stroke-dasharray="0,0"><path id="SvgjsPath1271" d="M0,0 L13,4.5 L0,9 L0,0" fill="#323232" stroke="#323232" stroke-width="1"></path></marker><marker id="SvgjsMarker1278" markerWidth="13" markerHeight="9" refX="9.5" refY="4.5" viewBox="0 0 13 9" orient="auto" markerUnits="userSpaceOnUse" stroke-dasharray="0,0"><path id="SvgjsPath1279" d="M0,0 L13,4.5 L0,9 L0,0" fill="#323232" stroke="#323232" stroke-width="1"></path></marker><marker id="SvgjsMarker1286" markerWidth="13" markerHeight="9" refX="9.5" refY="4.5" viewBox="0 0 13 9" orient="auto" markerUnits="userSpaceOnUse" stroke-dasharray="0,0"><path id="SvgjsPath1287" d="M0,0 L13,4.5 L0,9 L0,0" fill="#323232" stroke="#323232" stroke-width="1"></path></marker><marker id="SvgjsMarker1290" markerWidth="13" markerHeight="9" refX="9.5" refY="4.5" viewBox="0 0 13 9" orient="auto" markerUnits="userSpaceOnUse" stroke-dasharray="0,0"><path id="SvgjsPath1291" d="M0,0 L13,4.5 L0,9 L0,0" fill="#323232" stroke="#323232" stroke-width="1"></path></marker><marker id="SvgjsMarker1294" markerWidth="13" markerHeight="9" refX="9.5" refY="4.5" viewBox="0 0 13 9" orient="auto" markerUnits="userSpaceOnUse" stroke-dasharray="0,0"><path id="SvgjsPath1295" d="M0,0 L13,4.5 L0,9 L0,0" fill="#323232" stroke="#323232" stroke-width="1"></path></marker><marker id="SvgjsMarker1298" markerWidth="13" markerHeight="9" refX="9.5" refY="4.5" viewBox="0 0 13 9" orient="auto" markerUnits="userSpaceOnUse" stroke-dasharray="0,0"><path id="SvgjsPath1299" d="M0,0 L13,4.5 L0,9 L0,0" fill="#323232" stroke="#323232" stroke-width="1"></path></marker><marker id="SvgjsMarker1302" markerWidth="13" markerHeight="9" refX="9.5" refY="4.5" viewBox="0 0 13 9" orient="auto" markerUnits="userSpaceOnUse" stroke-dasharray="0,0"><path id="SvgjsPath1303" d="M0,0 L13,4.5 L0,9 L0,0" fill="#323232" stroke="#323232" stroke-width="1"></path></marker><marker id="SvgjsMarker1306" markerWidth="13" markerHeight="9" refX="9.5" refY="4.5" viewBox="0 0 13 9" orient="auto" markerUnits="userSpaceOnUse" stroke-dasharray="0,0"><path id="SvgjsPath1307" d="M0,0 L13,4.5 L0,9 L0,0" fill="#323232" stroke="#323232" stroke-width="1"></path></marker><marker id="SvgjsMarker1310" markerWidth="13" markerHeight="9" refX="9.5" refY="4.5" viewBox="0 0 13 9" orient="auto" markerUnits="userSpaceOnUse" stroke-dasharray="0,0"><path id="SvgjsPath1311" d="M0,0 L13,4.5 L0,9 L0,0" fill="#323232" stroke="#323232" stroke-width="1"></path></marker></defs><rect id="svgbackgroundid" width="938.0000305175781" height="593.0520935058594" fill="#ffffff"></rect><rect id="SvgjsRect1162" width="938.0000305175781" height="593.0520935058594" fill="url(#pattern_mark_0)"></rect><rect id="SvgjsRect1163" width="938.0000305175781" height="593.0520935058594" fill="url(#pattern_mark_1)"></rect><g id="SvgjsG1164" transform="translate(99,24.99999237060547)"><path id="SvgjsPath1165" d="M 0 4Q 0 0 4 0L 96 0Q 100 0 100 4L 100 36Q 100 40 96 40L 4 40Q 0 40 0 36Z" stroke="rgba(33,41,48,1)" stroke-width="1.5" fill-opacity="1" fill="#ffffff"></path><g id="SvgjsG1166"><text id="SvgjsText1167" font-family="微软雅黑" text-anchor="middle" font-size="13px" width="80px" fill="#323232" font-weight="400" align="middle" lineHeight="125%" anchor="middle" family="微软雅黑" size="13px" weight="400" font-style="" opacity="1" y="9.375" transform="rotate(0)"><tspan id="SvgjsTspan1168" dy="16.25" x="50"><tspan id="SvgjsTspan1169" style="">浏览器</tspan></tspan></text></g></g><g id="SvgjsG1170" transform="translate(99,116.99999237060547)"><path id="SvgjsPath1171" d="M 0 4Q 0 0 4 0L 96 0Q 100 0 100 4L 100 36Q 100 40 96 40L 4 40Q 0 40 0 36Z" stroke="rgba(33,41,48,1)" stroke-width="1.5" fill-opacity="1" fill="#ffffff"></path><g id="SvgjsG1172"><text id="SvgjsText1173" font-family="微软雅黑" text-anchor="middle" font-size="13px" width="80px" fill="#323232" font-weight="400" align="middle" lineHeight="125%" anchor="middle" family="微软雅黑" size="13px" weight="400" font-style="" opacity="1" y="9.375" transform="rotate(0)"><tspan id="SvgjsTspan1174" dy="16.25" x="50"><tspan id="SvgjsTspan1175" style="">有缓存？</tspan></tspan></text></g></g><g id="SvgjsG1176" transform="translate(99,207.99999237060547)"><path id="SvgjsPath1177" d="M 0 4Q 0 0 4 0L 96 0Q 100 0 100 4L 100 36Q 100 40 96 40L 4 40Q 0 40 0 36Z" stroke="rgba(33,41,48,1)" stroke-width="1.5" fill-opacity="1" fill="#ffffff"></path><g id="SvgjsG1178"><text id="SvgjsText1179" font-family="微软雅黑" text-anchor="middle" font-size="13px" width="80px" fill="#323232" font-weight="400" align="middle" lineHeight="125%" anchor="middle" family="微软雅黑" size="13px" weight="400" font-style="" opacity="1" y="9.375" transform="rotate(0)"><tspan id="SvgjsTspan1180" dy="16.25" x="50"><tspan id="SvgjsTspan1181" style="">向服务器请求</tspan></tspan></text></g></g><g id="SvgjsG1182"><path id="SvgjsPath1183" d="M149 65.74999237060547L149 90.74999237060547L149 90.74999237060547L149 114.29999237060548" stroke="#323232" stroke-width="1.5" fill="none" marker-end="url(#SvgjsMarker1184)"></path></g><g id="SvgjsG1186"><path id="SvgjsPath1187" d="M149 157.74999237060547L149 182.24999237060547L149 182.24999237060547L149 205.29999237060548" stroke="#323232" stroke-width="1.5" fill="none" marker-end="url(#SvgjsMarker1188)"></path><rect id="SvgjsRect1190" width="13" height="16" x="142.5" y="167.7543613026443" fill="#ffffff"></rect><text id="SvgjsText1191" font-family="微软雅黑" text-anchor="middle" font-size="13px" width="13px" fill="#323232" font-weight="400" align="top" lineHeight="16px" anchor="middle" family="微软雅黑" size="13px" weight="400" font-style="" opacity="1" y="165.1293613026443" transform="rotate(0)"><tspan id="SvgjsTspan1192" dy="16.25" x="149"><tspan id="SvgjsTspan1193" style="">否</tspan></tspan></text></g><g id="SvgjsG1194" transform="translate(375.7777798970541,116.99999237060547)"><path id="SvgjsPath1195" d="M 0 4Q 0 0 4 0L 256.44444020589196 0Q 260.44444020589196 0 260.44444020589196 4L 260.44444020589196 36Q 260.44444020589196 40 256.44444020589196 40L 4 40Q 0 40 0 36Z" stroke="rgba(33,41,48,1)" stroke-width="1.5" fill-opacity="1" fill="#ffffff"></path><g id="SvgjsG1196"><text id="SvgjsText1197" font-family="微软雅黑" text-anchor="middle" font-size="13px" width="241px" fill="#323232" font-weight="400" align="middle" lineHeight="125%" anchor="middle" family="微软雅黑" size="13px" weight="400" font-style="" opacity="1" y="9.375" transform="rotate(0)"><tspan id="SvgjsTspan1198" dy="16.25" x="130.5"><tspan id="SvgjsTspan1199" style="">是否过期（Expires 和 Cache-Control）</tspan></tspan></text></g></g><g id="SvgjsG1200" transform="translate(813,116.99999237060547)"><path id="SvgjsPath1201" d="M 0 4Q 0 0 4 0L 96 0Q 100 0 100 4L 100 36Q 100 40 96 40L 4 40Q 0 40 0 36Z" stroke="rgba(33,41,48,1)" stroke-width="1.5" fill-opacity="1" fill="#ffffff"></path><g id="SvgjsG1202"><text id="SvgjsText1203" font-family="微软雅黑" text-anchor="middle" font-size="13px" width="80px" fill="#323232" font-weight="400" align="middle" lineHeight="125%" anchor="middle" family="微软雅黑" size="13px" weight="400" font-style="" opacity="1" y="9.375" transform="rotate(0)"><tspan id="SvgjsTspan1204" dy="16.25" x="50"><tspan id="SvgjsTspan1205" style="">读取缓存</tspan></tspan></text></g></g><g id="SvgjsG1206" transform="translate(25,452.99999237060547)"><path id="SvgjsPath1207" d="M 0 4Q 0 0 4 0L 244 0Q 248 0 248 4L 248 36Q 248 40 244 40L 4 40Q 0 40 0 36Z" stroke="rgba(33,41,48,1)" stroke-width="1.5" fill-opacity="1" fill="#ffffff"></path><g id="SvgjsG1208"><text id="SvgjsText1209" font-family="微软雅黑" text-anchor="middle" font-size="13px" width="228px" fill="#323232" font-weight="400" align="middle" lineHeight="125%" anchor="middle" family="微软雅黑" size="13px" weight="400" font-style="" opacity="1" y="9.375" transform="rotate(0)"><tspan id="SvgjsTspan1210" dy="16.25" x="124"><tspan id="SvgjsTspan1211" style="">返回请求结果以及缓存标识，存入缓存</tspan></tspan></text></g></g><g id="SvgjsG1212" transform="translate(382,207.99999237060547)"><path id="SvgjsPath1213" d="M 0 4Q 0 0 4 0L 244 0Q 248 0 248 4L 248 36Q 248 40 244 40L 4 40Q 0 40 0 36Z" stroke="rgba(33,41,48,1)" stroke-width="1.5" fill-opacity="1" fill="#ffffff"></path><g id="SvgjsG1214"><text id="SvgjsText1215" font-family="微软雅黑" text-anchor="middle" font-size="13px" width="228px" fill="#323232" font-weight="400" align="middle" lineHeight="125%" anchor="middle" family="微软雅黑" size="13px" weight="400" font-style="" opacity="1" y="9.375" transform="rotate(0)"><tspan id="SvgjsTspan1216" dy="16.25" x="124"><tspan id="SvgjsTspan1217" style="">返回请求结果以及缓存标识，存入缓存</tspan></tspan></text></g></g><g id="SvgjsG1218"><path id="SvgjsPath1219" d="M199.75 136.99999237060547L286.61111111111114 136.99999237060547L286.61111111111114 136.99999237060547L373.0777798970541 136.99999237060547" stroke="#323232" stroke-width="1.5" fill="none" marker-end="url(#SvgjsMarker1220)"></path><rect id="SvgjsRect1222" width="13" height="16" x="282.4080227028049" y="128.99999237060547" fill="#ffffff"></rect><text id="SvgjsText1223" font-family="微软雅黑" text-anchor="middle" font-size="13px" width="13px" fill="#323232" font-weight="400" align="top" lineHeight="16px" anchor="middle" family="微软雅黑" size="13px" weight="400" font-style="" opacity="1" y="126.37499237060547" transform="rotate(0)"><tspan id="SvgjsTspan1224" dy="16.25" x="288.9080227028049"><tspan id="SvgjsTspan1225" style="">是</tspan></tspan></text></g><g id="SvgjsG1226"><path id="SvgjsPath1227" d="M636.972220102946 136.99999237060547L724.2777735392253 136.99999237060547L724.2777735392253 136.99999237060547L810.3 136.99999237060547" stroke="#323232" stroke-width="1.5" fill="none" marker-end="url(#SvgjsMarker1228)"></path><rect id="SvgjsRect1230" width="13" height="16" x="718.4223197599988" y="128.99999237060547" fill="#ffffff"></rect><text id="SvgjsText1231" font-family="微软雅黑" text-anchor="middle" font-size="13px" width="13px" fill="#323232" font-weight="400" align="top" lineHeight="16px" anchor="middle" family="微软雅黑" size="13px" weight="400" font-style="" opacity="1" y="126.37499237060547" transform="rotate(0)"><tspan id="SvgjsTspan1232" dy="16.25" x="724.9223197599988"><tspan id="SvgjsTspan1233" style="">否</tspan></tspan></text></g><g id="SvgjsG1234" transform="translate(452.7222296396892,528.0555479261609)"><path id="SvgjsPath1235" d="M 0 4Q 0 0 4 0L 102.5555407206217 0Q 106.5555407206217 0 106.5555407206217 4L 106.5555407206217 36Q 106.5555407206217 40 102.5555407206217 40L 4 40Q 0 40 0 36Z" stroke="rgba(33,41,48,1)" stroke-width="1.5" fill-opacity="1" fill="#ffffff"></path><g id="SvgjsG1236"><text id="SvgjsText1237" font-family="微软雅黑" text-anchor="middle" font-size="13px" width="87px" fill="#323232" font-weight="400" align="middle" lineHeight="125%" anchor="middle" family="微软雅黑" size="13px" weight="400" font-style="" opacity="1" y="9.375" transform="rotate(0)"><tspan id="SvgjsTspan1238" dy="16.25" x="53.5"><tspan id="SvgjsTspan1239" style="">页面加载成功</tspan></tspan></text></g></g><g id="SvgjsG1240" transform="translate(813,452.99999237060547)"><path id="SvgjsPath1241" d="M 0 4Q 0 0 4 0L 96 0Q 100 0 100 4L 100 36Q 100 40 96 40L 4 40Q 0 40 0 36Z" stroke="rgba(33,41,48,1)" stroke-width="1.5" fill-opacity="1" fill="#ffffff"></path><g id="SvgjsG1242"><text id="SvgjsText1243" font-family="微软雅黑" text-anchor="middle" font-size="13px" width="80px" fill="#323232" font-weight="400" align="middle" lineHeight="125%" anchor="middle" family="微软雅黑" size="13px" weight="400" font-style="" opacity="1" y="9.375" transform="rotate(0)"><tspan id="SvgjsTspan1244" dy="16.25" x="50"><tspan id="SvgjsTspan1245" style="">返回缓存</tspan></tspan></text></g></g><g id="SvgjsG1246" transform="translate(447.4444518619114,299.99999237060547)"><path id="SvgjsPath1247" d="M 0 4Q 0 0 4 0L 113.11109627617725 0Q 117.11109627617725 0 117.11109627617725 4L 117.11109627617725 36Q 117.11109627617725 40 113.11109627617725 40L 4 40Q 0 40 0 36Z" stroke="rgba(33,41,48,1)" stroke-width="1.5" fill-opacity="1" fill="#ffffff"></path><g id="SvgjsG1248"><text id="SvgjsText1249" font-family="微软雅黑" text-anchor="middle" font-size="13px" width="98px" fill="#323232" font-weight="400" align="middle" lineHeight="125%" anchor="middle" family="微软雅黑" size="13px" weight="400" font-style="" opacity="1" y="9.375" transform="rotate(0)"><tspan id="SvgjsTspan1250" dy="16.25" x="59"><tspan id="SvgjsTspan1251" style="">资源是否有更新</tspan></tspan></text></g></g><g id="SvgjsG1252" transform="translate(359.33333333333337,390.99999237060547)"><path id="SvgjsPath1253" d="M 0 4Q 0 0 4 0L 289.3333333333333 0Q 293.3333333333333 0 293.3333333333333 4L 293.3333333333333 36Q 293.3333333333333 40 289.3333333333333 40L 4 40Q 0 40 0 36Z" stroke="rgba(33,41,48,1)" stroke-width="1.5" fill-opacity="1" fill="#ffffff"></path><g id="SvgjsG1254"><text id="SvgjsText1255" font-family="微软雅黑" text-anchor="middle" font-size="13px" width="274px" fill="#323232" font-weight="400" align="middle" lineHeight="125%" anchor="middle" family="微软雅黑" size="13px" weight="400" font-style="" opacity="1" y="9.375" transform="rotate(0)"><tspan id="SvgjsTspan1256" dy="16.25" x="147"><tspan id="SvgjsTspan1257" style="">重新返回资源和缓存标识，200，并存入缓存中</tspan></tspan></text></g></g><g id="SvgjsG1258" transform="translate(689.8888867696127,299.99999237060547)"><path id="SvgjsPath1259" d="M 0 4Q 0 0 4 0L 147.18517388237848 0Q 151.18517388237848 0 151.18517388237848 4L 151.18517388237848 36Q 151.18517388237848 40 147.18517388237848 40L 4 40Q 0 40 0 36Z" stroke="rgba(33,41,48,1)" stroke-width="1.5" fill-opacity="1" fill="#ffffff"></path><g id="SvgjsG1260"><text id="SvgjsText1261" font-family="微软雅黑" text-anchor="middle" font-size="13px" width="132px" fill="#323232" font-weight="400" align="middle" lineHeight="125%" anchor="middle" family="微软雅黑" size="13px" weight="400" font-style="" opacity="1" y="9.375" transform="rotate(0)"><tspan id="SvgjsTspan1262" dy="16.25" x="76"><tspan id="SvgjsTspan1263" style="">304，继续使用缓存</tspan></tspan></text></g></g><g id="SvgjsG1264"><path id="SvgjsPath1265" d="M506.0000000000001 431.74999237060547L506.0000000000001 479.5277701483832L506.0000000000001 479.5277701483832L506.0000000000001 525.3555479261609" stroke="#323232" stroke-width="1.5" fill="none" marker-end="url(#SvgjsMarker1266)"></path></g><g id="SvgjsG1268"><path id="SvgjsPath1269" d="M506 340.74999237060547L506 365.24999237060547L506 365.24999237060547L506 388.2999923706054" stroke="#323232" stroke-width="1.5" fill="none" marker-end="url(#SvgjsMarker1270)"></path><rect id="SvgjsRect1272" width="13" height="16" x="499.5" y="356.26974505164543" fill="#ffffff"></rect><text id="SvgjsText1273" font-family="微软雅黑" text-anchor="middle" font-size="13px" width="13px" fill="#323232" font-weight="400" align="top" lineHeight="16px" anchor="middle" family="微软雅黑" size="13px" weight="400" font-style="" opacity="1" y="353.64474505164543" transform="rotate(0)"><tspan id="SvgjsTspan1274" dy="16.25" x="506"><tspan id="SvgjsTspan1275" style="">是</tspan></tspan></text></g><g id="SvgjsG1276"><path id="SvgjsPath1277" d="M565.3055481380886 319.99999237060547L626.9444386164348 319.99999237060547L626.9444386164348 319.99999237060547L687.1888867696126 319.99999237060547" stroke="#323232" stroke-width="1.5" fill="none" marker-end="url(#SvgjsMarker1278)"></path><rect id="SvgjsRect1280" width="13" height="16" x="625.1175383150846" y="311.99999237060547" fill="#ffffff"></rect><text id="SvgjsText1281" font-family="微软雅黑" text-anchor="middle" font-size="13px" width="13px" fill="#323232" font-weight="400" align="top" lineHeight="16px" anchor="middle" family="微软雅黑" size="13px" weight="400" font-style="" opacity="1" y="309.37499237060547" transform="rotate(0)"><tspan id="SvgjsTspan1282" dy="16.25" x="631.6175383150846"><tspan id="SvgjsTspan1283" style="">否</tspan></tspan></text></g><g id="SvgjsG1284"><path id="SvgjsPath1285" d="M863 157.74999237060547L863 304.305547926161L863 304.305547926161L863 450.2999923706054" stroke="#323232" stroke-width="1.5" fill="none" marker-end="url(#SvgjsMarker1286)"></path></g><g id="SvgjsG1288"><path id="SvgjsPath1289" d="M506 248.74999237060547L506 273.74999237060547L506 273.74999237060547L506 297.2999923706054" stroke="#323232" stroke-width="1.5" fill="none" marker-end="url(#SvgjsMarker1290)"></path></g><g id="SvgjsG1292"><path id="SvgjsPath1293" d="M506 157.74999237060547L506 182.24999237060547L506 182.24999237060547L506 205.29999237060548" stroke="#323232" stroke-width="1.5" fill="none" marker-end="url(#SvgjsMarker1294)"></path></g><g id="SvgjsG1296"><path id="SvgjsPath1297" d="M149 248.74999237060547L149 350.055547926161L149 350.055547926161L149 450.2999923706054" stroke="#323232" stroke-width="1.5" fill="none" marker-end="url(#SvgjsMarker1298)"></path></g><g id="SvgjsG1300"><path id="SvgjsPath1301" d="M765.4814737108019 299.24999237060547L765.4814737108019 136.99999237060547L810.3 136.99999237060547" stroke="#323232" stroke-width="1.5" fill="none" marker-end="url(#SvgjsMarker1302)"></path></g><g id="SvgjsG1304"><path id="SvgjsPath1305" d="M812.25 472.99999237060547L506.0000000000001 472.99999237060547L506.0000000000001 525.3555479261609" stroke="#323232" stroke-width="1.5" fill="none" marker-end="url(#SvgjsMarker1306)"></path></g><g id="SvgjsG1308"><path id="SvgjsPath1309" d="M273.75 472.99999237060547L506.0000000000001 472.99999237060547L506.0000000000001 525.3555479261609" stroke="#323232" stroke-width="1.5" fill="none" marker-end="url(#SvgjsMarker1310)"></path></g></svg>